<svg width="337" height="75" viewBox="0 0 337 75" fill="none" xmlns="http://www.w3.org/2000/svg">
<path d="M41.92 59.2002H0V48.8002H6.64V23.7602H0V13.3602H41.92V23.7602H35.44V48.8002H41.92V59.2002ZM24.48 48.8002V23.7602H17.44V48.8002H24.48ZM61.68 60.6402H50V0.160182H61.68V60.6402Z" fill="white"/>
<path d="M106.8 58.8002H95.12V43.6002H75.12V32.9602H95.12V23.8402H71.04V13.2002H106.8V58.8002ZM128.24 24.4002H139.6V35.0402H128.24V60.6402H116.48V0.160182H128.24V24.4002Z" fill="white"/>
<path d="M146 31.9202H152.4V14.7202H146V0.160156L166.72 10L187.92 0.160156V14.7202H181.52V31.9202H187.92V41.2002H146V31.9202ZM170.64 31.9202V14.7202H163.28V31.9202H170.64ZM207.68 43.1202H196V0.160156H207.68V43.1202ZM205.6 74.7202H193.92V56.9602H166.72V47.4402H205.6V74.7202Z" fill="#EFFF04"/>
<path d="M270.52 60.6402H211V50.2402H234.92V41.5202H217.48V31.6002H224.12V17.6002H217.48V7.20018H264.12V17.6002H257.48V31.6002H264.12V41.5202H246.6V50.2402H270.52V60.6402ZM246.6 31.6002V17.6002H235V31.6002H246.6Z" fill="white"/>
<path d="M324.065 20.0002V29.8402H295.905V33.6002H329.105V43.6002H312.225V50.2402H336.145V60.6402H276.625V50.2402H300.545V43.6002H284.625V6.24018H327.025V16.3202H295.905V20.0002H324.065Z" fill="white"/>
<path d="M146 0.160156L157.161 5.46069L146 13.5002V0.160156Z" fill="#515151"/>
<path d="M187.92 0.160156L176.5 5.46069L187.92 13.5002V0.160156Z" fill="#515151"/>
</svg>
